<svg width="360" height="360" viewBox="0 0 360 360" fill="none" xmlns="http://www.w3.org/2000/svg">
<path d="M52.559 238.816C44.5297 231.95 33.8239 221.4 28.122 215.543C25.4067 217.482 0 240.523 0 240.523C11.753 256.387 30.6432 275.239 53.3348 286.914C91.697 305.067 130.214 310.42 155.35 272.95C178.584 227.102 125.288 201.346 97.7869 176.56C95.7311 174.388 93.6753 171.129 93.6753 168.996C91.4643 160.23 98.2523 153.946 107.251 153.635C118.112 153.325 124.319 156.739 137.119 163.953C152.712 173.263 159.733 183.154 169.275 195.644C175.21 204.022 194.371 220.702 199.181 223.3C223.812 241.648 265.045 256.542 293.05 243.859C310.854 233.579 324.857 217.676 324.469 198.088C321.095 160.967 284.4 146.421 261.088 124.195C257.015 120.044 256.395 116.243 256.783 111.006C257.985 102.395 269.583 100.262 277.147 101.503C295.106 104.374 319.776 124.932 330.288 139.128L360 112.054C336.882 84.436 284.129 46.7332 238.358 64.6537C212.369 77.7644 200.927 100.572 210.43 126.716C221.679 150.61 238.979 159.144 256.201 174.038C256.201 174.038 272.492 185.675 273.268 190.718C275.867 203.091 265.239 210.578 253.098 206.621C238.164 202.393 218.925 189.864 208.103 179.081C204.03 174.698 196.543 165.466 193.052 160.656C177.304 140.952 146.195 120.355 119.664 115.079C96.1577 107.865 62.9932 114.691 50.2317 139.128C35.6858 161.432 46.5079 183.309 60.3168 198.863C68.0358 206.233 84.3271 220.042 92.8995 226.403C92.8995 226.403 109.191 238.04 109.967 243.083C112.565 255.456 101.937 262.943 89.7964 258.986C73.4662 252.741 63.0708 247.35 52.559 238.816Z" fill="#DE5C2A"/>
</svg>
